<?xml version="1.0" standalone="no"?>
<!DOCTYPE svg PUBLIC "-//W3C//DTD SVG 20010904//EN"
 "http://www.w3.org/TR/2001/REC-SVG-20010904/DTD/svg10.dtd">
<svg version="1.0" xmlns="http://www.w3.org/2000/svg"
 width="840.000000pt" height="840.000000pt" viewBox="0 0 840.000000 840.000000"
 preserveAspectRatio="xMidYMid meet">
<metadata>
Created by potrace 1.16, written by Peter Selinger 2001-2019
</metadata>
<g transform="translate(0.000000,840.000000) scale(0.100000,-0.100000)"
fill="#000000" stroke="none">
<path d="M4030 8350 c-8 -5 -45 -10 -81 -10 -127 0 -308 -13 -303 -22 3 -4
-17 -8 -45 -8 -27 0 -52 -4 -55 -9 -3 -5 -44 -12 -91 -16 -47 -4 -85 -11 -85
-16 0 -5 -12 -9 -27 -9 -16 0 -46 -7 -68 -15 -22 -8 -57 -14 -77 -15 -21 0
-38 -4 -38 -10 0 -5 -7 -10 -16 -10 -18 0 -111 -28 -134 -39 -9 -5 -35 -12
-58 -16 -23 -4 -42 -11 -42 -16 0 -5 -8 -9 -19 -9 -10 0 -32 -7 -47 -15 -16
-8 -39 -15 -51 -15 -13 0 -23 -4 -23 -10 0 -5 -9 -10 -20 -10 -11 0 -20 -4
-20 -9 0 -5 -18 -11 -40 -15 -22 -3 -40 -11 -40 -16 0 -6 -6 -10 -14 -10 -7 0
-27 -7 -42 -15 -16 -8 -37 -15 -46 -15 -10 0 -18 -3 -18 -7 0 -11 -51 -33 -61
-27 -5 3 -9 0 -9 -5 0 -6 -7 -11 -15 -11 -8 0 -15 -4 -15 -9 0 -5 -15 -12 -34
-15 -19 -4 -36 -10 -38 -14 -5 -11 -65 -42 -82 -42 -9 0 -16 -4 -16 -9 0 -5
-18 -17 -40 -27 -22 -10 -40 -21 -40 -26 0 -4 -5 -8 -10 -8 -6 0 -35 -16 -65
-35 -30 -19 -55 -31 -55 -27 0 4 -4 2 -8 -4 -4 -6 -45 -35 -92 -64 -46 -29
-91 -59 -99 -67 -8 -8 -33 -26 -55 -40 -22 -15 -46 -31 -53 -37 -16 -14 -28
-24 -78 -61 -46 -34 -41 -30 -120 -93 -82 -64 -136 -114 -294 -272 -139 -139
-211 -215 -211 -224 0 -8 -163 -210 -172 -214 -5 -2 -8 -9 -8 -15 0 -7 -11
-24 -25 -39 -14 -15 -25 -29 -25 -32 0 -8 -64 -101 -72 -104 -5 -2 -8 -10 -8
-17 0 -7 -3 -15 -8 -17 -4 -1 -23 -28 -42 -58 -19 -30 -37 -57 -40 -60 -3 -3
-13 -20 -23 -38 -9 -17 -25 -47 -35 -64 -9 -18 -20 -34 -24 -36 -5 -2 -8 -10
-8 -18 0 -8 -4 -14 -10 -14 -5 0 -10 -4 -10 -10 0 -18 -34 -90 -43 -90 -4 0
-6 -4 -2 -9 3 -5 1 -12 -5 -16 -5 -3 -10 -15 -10 -26 0 -10 -4 -19 -8 -19 -4
0 -16 -22 -27 -50 -11 -27 -23 -50 -27 -50 -4 0 -8 -8 -8 -17 0 -10 -7 -31
-15 -47 -8 -15 -15 -35 -15 -42 0 -8 -4 -14 -9 -14 -5 0 -12 -18 -16 -40 -4
-22 -11 -42 -16 -46 -5 -3 -9 -14 -9 -25 0 -10 -4 -19 -9 -19 -5 0 -12 -18
-16 -40 -4 -22 -11 -42 -16 -46 -5 -3 -9 -14 -9 -25 0 -10 -4 -19 -9 -19 -5 0
-12 -20 -15 -45 -4 -25 -10 -45 -14 -45 -7 0 -24 -66 -38 -147 -4 -18 -10 -33
-15 -33 -5 0 -9 -15 -9 -32 -1 -18 -7 -51 -15 -73 -8 -22 -15 -52 -15 -67 0
-16 -4 -28 -9 -28 -4 0 -11 -39 -15 -87 -3 -48 -11 -92 -16 -97 -6 -6 -10 -39
-10 -74 0 -35 -4 -61 -8 -58 -13 8 -22 -225 -22 -539 0 -314 9 -547 22 -539 4
3 8 -22 8 -55 0 -33 4 -62 9 -66 5 -3 13 -41 17 -85 3 -44 11 -80 15 -80 5 0
9 -18 9 -39 0 -22 4 -42 9 -45 5 -3 12 -33 16 -66 4 -33 11 -60 15 -60 4 0 10
-12 13 -27 18 -84 32 -139 38 -143 4 -3 10 -26 14 -52 4 -26 11 -45 16 -42 5
3 9 -6 9 -20 0 -14 4 -27 9 -30 5 -4 12 -24 16 -46 4 -22 11 -40 16 -40 5 0 9
-11 9 -25 0 -14 4 -25 10 -25 5 0 12 -17 16 -37 4 -21 10 -40 13 -43 11 -8 41
-77 41 -94 0 -9 4 -16 9 -16 8 0 21 -34 20 -54 -1 -5 3 -12 8 -15 14 -10 55
-91 46 -91 -4 0 -3 -4 2 -8 6 -4 19 -25 30 -47 11 -22 22 -42 25 -45 3 -3 14
-23 25 -45 11 -22 22 -42 25 -45 7 -7 29 -43 37 -60 4 -8 9 -17 12 -20 4 -3
15 -22 26 -42 11 -21 23 -38 27 -38 5 0 8 -6 8 -13 0 -8 11 -27 25 -43 14 -16
28 -37 31 -46 3 -10 10 -18 15 -18 5 0 9 -6 9 -13 0 -8 11 -24 25 -37 14 -13
25 -28 25 -34 0 -10 79 -109 92 -114 5 -2 8 -8 8 -14 0 -6 12 -25 27 -43 16
-18 46 -55 68 -81 22 -27 102 -112 177 -190 76 -77 138 -144 138 -149 0 -4 -8
-4 -17 -1 -10 4 -14 3 -9 -1 4 -4 16 -8 25 -8 9 0 51 -30 92 -67 101 -91 121
-108 128 -108 3 0 26 -18 51 -40 60 -54 68 -60 75 -60 4 0 12 -6 19 -13 7 -6
27 -23 45 -37 19 -14 48 -37 66 -52 18 -16 38 -28 44 -28 6 0 11 -4 11 -10 0
-5 6 -10 13 -10 7 0 23 -10 37 -23 14 -13 30 -24 35 -25 6 -1 18 -9 28 -17 9
-8 22 -15 27 -15 6 0 10 -4 10 -9 0 -5 10 -13 23 -17 12 -4 24 -9 27 -13 3 -3
22 -15 43 -25 20 -11 37 -23 37 -28 0 -4 7 -8 15 -8 8 0 31 -8 50 -18 25 -14
31 -22 23 -30 -8 -8 -5 -9 10 -6 21 6 91 -22 104 -40 4 -6 8 -7 8 -3 0 5 12 0
28 -11 15 -10 36 -22 47 -27 11 -5 22 -9 25 -10 3 -2 15 -6 28 -10 12 -4 22
-11 22 -16 0 -5 7 -9 15 -9 21 0 95 -33 95 -42 0 -5 10 -8 23 -8 12 0 35 -7
51 -15 15 -8 35 -15 42 -15 8 0 14 -4 14 -9 0 -5 18 -12 40 -16 22 -4 42 -11
46 -16 3 -5 14 -9 25 -9 10 0 19 -4 19 -9 0 -5 23 -11 50 -15 28 -4 50 -10 50
-15 0 -5 22 -11 50 -15 27 -4 52 -11 55 -16 3 -6 19 -10 36 -10 16 0 29 -4 29
-8 0 -7 52 -20 158 -38 17 -4 32 -10 32 -14 0 -5 38 -11 85 -15 47 -4 88 -11
91 -16 3 -5 27 -9 55 -9 27 0 49 -4 49 -9 0 -4 78 -11 173 -15 94 -4 176 -12
182 -17 12 -12 452 -12 459 0 3 5 91 12 196 16 104 4 190 11 190 16 0 5 24 9
54 9 30 0 57 4 60 9 3 5 42 12 86 16 44 4 80 11 80 16 0 5 20 9 44 9 25 0 47
4 51 10 3 5 32 12 65 16 33 4 60 11 60 15 0 5 13 9 29 9 17 0 33 4 36 10 3 5
28 12 55 16 28 4 50 10 50 14 0 5 23 11 50 15 28 4 50 11 50 16 0 5 9 9 20 9
11 0 20 4 20 10 0 5 22 12 50 16 27 4 47 10 44 15 -3 5 4 9 14 9 11 0 33 7 48
15 16 8 37 15 47 15 9 0 17 3 17 8 0 13 89 44 112 38 13 -3 17 -3 11 0 -16 7
-17 24 -2 24 5 0 37 14 71 30 33 17 66 30 74 30 8 0 14 5 14 10 0 6 7 10 15
10 8 0 15 4 15 9 0 5 12 12 27 16 15 3 30 10 33 13 10 13 68 42 84 42 9 0 16
3 16 8 0 7 30 25 63 38 9 3 17 10 17 15 0 5 4 9 10 9 5 0 32 16 60 36 27 20
50 33 50 28 0 -4 8 2 18 13 9 11 33 28 52 39 19 10 40 24 47 29 6 6 28 21 48
35 20 14 49 35 64 47 16 12 32 19 36 15 5 -4 5 -1 1 5 -4 8 -1 13 8 13 9 0 16
5 16 11 0 6 7 9 15 5 8 -3 14 -1 12 4 -3 14 76 80 90 75 7 -2 10 2 6 11 -3 7
0 14 5 14 13 0 139 116 302 280 130 130 271 280 263 280 -3 0 7 15 21 33 15
17 36 45 49 60 12 15 28 34 35 42 6 7 12 16 12 20 0 3 5 11 10 18 6 7 24 30
40 52 16 22 34 45 40 52 5 7 10 14 10 16 0 6 83 131 91 137 3 3 14 22 24 43 9
20 21 37 25 37 5 0 11 13 15 30 4 16 10 30 15 30 4 0 10 8 13 18 8 24 50 96
62 104 6 4 6 8 2 8 -5 0 1 13 12 28 11 16 23 40 26 55 4 15 11 30 16 33 5 3 9
14 9 25 0 10 4 19 10 19 5 0 12 16 16 35 3 19 10 35 15 35 5 0 9 9 9 20 0 11
5 20 10 20 6 0 10 10 10 23 0 13 7 32 15 43 8 10 15 27 15 37 0 10 4 16 9 13
5 -3 12 14 15 39 4 25 11 45 16 45 5 0 12 20 16 45 3 25 10 48 15 51 5 3 9 14
9 25 0 10 4 19 9 19 5 0 12 20 15 45 4 24 11 47 17 50 5 4 9 19 9 36 0 16 4
29 9 29 5 0 12 27 16 60 4 33 11 63 16 66 5 3 9 18 9 35 0 16 4 29 9 29 4 0
11 33 15 73 4 39 11 74 16 75 6 2 10 28 10 58 0 32 4 54 11 54 6 0 10 12 8 27
-1 16 1 35 4 43 10 26 17 357 7 335 -5 -11 -9 -72 -9 -135 -1 -114 -9 -171
-58 -410 -53 -261 -141 -552 -218 -728 -19 -44 -35 -83 -35 -87 0 -8 -52 -122
-102 -220 -125 -250 -363 -605 -543 -810 -218 -249 -561 -560 -770 -698 -38
-26 -81 -55 -95 -65 -58 -43 -244 -153 -360 -214 -111 -59 -172 -87 -382 -182
-73 -32 -391 -139 -513 -171 -226 -61 -492 -102 -770 -120 -49 -3 -141 -11
-203 -17 -116 -11 -208 -6 -562 28 -291 27 -455 61 -760 154 -74 23 -144 45
-155 49 -11 4 -81 32 -155 61 -146 57 -501 230 -615 300 -345 210 -747 548
-1009 848 -57 66 -176 215 -221 279 -104 148 -245 365 -245 378 0 3 -17 33
-38 67 -105 173 -220 440 -307 708 -78 242 -87 279 -145 585 -44 230 -60 689
-35 990 18 216 61 514 91 620 9 33 20 78 24 100 27 136 170 524 273 740 73
154 169 328 228 416 229 340 394 544 612 755 376 365 855 683 1307 869 63 26
129 53 145 60 31 14 290 101 383 129 65 19 351 80 447 95 201 31 367 41 680
41 346 0 433 -7 680 -56 245 -47 377 -82 580 -149 194 -65 237 -82 316 -120
40 -19 76 -35 80 -35 32 0 411 -201 574 -304 184 -117 482 -357 684 -551 121
-117 333 -364 443 -518 153 -215 308 -479 398 -682 13 -27 36 -79 52 -115 17
-36 39 -90 50 -120 11 -30 23 -64 28 -75 36 -87 102 -317 144 -510 31 -140 76
-432 77 -500 0 -38 5 -79 10 -90 9 -20 8 17 -7 248 -3 54 -10 95 -15 91 -5 -3
-9 19 -9 50 0 30 -4 57 -9 60 -5 4 -12 44 -16 91 -4 47 -11 82 -16 79 -5 -3
-9 10 -9 28 0 19 -4 38 -10 44 -5 5 -13 38 -16 72 -4 34 -11 62 -15 62 -5 0
-9 11 -9 24 0 14 -4 27 -9 31 -6 3 -13 26 -17 50 -3 25 -10 45 -15 45 -5 0 -9
11 -9 24 0 14 -4 27 -9 30 -5 4 -12 24 -16 46 -4 22 -10 40 -15 40 -4 0 -11
23 -15 50 -4 28 -11 47 -16 44 -5 -3 -9 6 -9 20 0 13 -5 26 -12 28 -6 2 -12
20 -12 40 -1 28 -4 34 -13 26 -10 -8 -13 -6 -13 5 0 8 -7 28 -15 43 -8 16 -15
37 -15 47 0 9 -3 17 -8 17 -8 0 -42 73 -42 90 0 6 -4 10 -9 10 -8 0 -17 21
-19 44 0 5 -4 12 -9 15 -5 3 -17 22 -26 41 -23 47 -40 74 -51 82 -5 3 -10 22
-10 42 -1 21 -5 31 -10 26 -9 -9 -28 15 -42 53 -3 9 -10 17 -14 17 -4 0 -10 8
-14 18 -6 19 -27 54 -37 62 -4 3 -21 30 -40 60 -18 30 -36 57 -39 60 -3 3 -30
39 -60 80 -29 41 -59 80 -64 87 -6 6 -22 26 -36 44 -14 18 -44 53 -66 78 -23
25 -43 49 -43 53 -6 31 -364 381 -377 369 -4 -3 -4 2 -1 11 4 11 2 15 -6 13
-7 -3 -36 18 -65 45 -29 28 -70 63 -92 79 -22 16 -36 32 -32 36 4 3 2 5 -4 3
-6 -1 -25 8 -41 22 -16 14 -51 41 -78 59 -28 19 -52 38 -55 41 -3 4 -20 15
-37 25 -18 11 -33 23 -33 27 0 4 -4 8 -9 8 -5 0 -35 17 -67 39 -33 21 -75 47
-94 57 -19 10 -37 21 -40 24 -3 3 -22 14 -42 25 -21 11 -38 22 -38 25 0 3 -20
14 -45 25 -25 11 -45 23 -45 26 0 4 -13 10 -30 14 -16 4 -30 11 -30 16 0 5 -9
9 -21 9 -11 0 -18 4 -15 9 4 5 -12 12 -34 16 -22 4 -40 10 -40 15 0 4 -10 11
-22 15 -13 4 -25 9 -28 10 -3 1 -15 6 -27 10 -13 4 -23 11 -23 15 0 4 -18 10
-40 14 -22 3 -40 11 -40 16 0 6 -10 10 -21 10 -16 0 -19 3 -11 13 8 9 1 12
-30 14 -22 0 -45 6 -51 12 -6 6 -19 11 -29 11 -10 0 -18 4 -18 9 0 6 -20 13
-45 17 -25 3 -45 10 -45 15 0 5 -11 9 -25 9 -14 0 -25 5 -25 11 0 5 -8 9 -17
8 -18 -2 -45 5 -74 21 -9 5 -37 11 -63 15 -25 4 -49 11 -52 16 -3 5 -18 9 -35
9 -16 0 -29 4 -29 9 0 4 -27 11 -60 15 -33 4 -62 11 -65 16 -4 6 -24 10 -46
10 -21 0 -39 4 -39 9 0 5 -36 12 -80 16 -44 4 -80 11 -80 16 0 5 -23 9 -51 9
-31 0 -48 4 -44 10 4 6 -11 10 -37 11 -24 1 -124 5 -223 11 -306 16 -519 19
-535 8z"/>
<path d="M4168 7523 c-8 -10 -86 -135 -172 -278 -87 -143 -185 -305 -220 -360
-34 -55 -104 -170 -156 -255 -104 -171 -248 -406 -335 -545 -79 -126 -261
-423 -370 -600 -50 -82 -128 -208 -173 -278 -45 -71 -82 -135 -82 -143 0 -11
21 -14 103 -14 56 0 107 4 114 8 7 4 104 154 216 332 111 179 240 384 286 455
166 261 344 541 381 600 20 33 74 119 120 190 45 72 110 175 145 230 114 184
174 275 183 275 9 0 126 -180 385 -590 72 -113 152 -239 178 -280 26 -41 89
-140 138 -220 50 -80 127 -201 170 -270 103 -162 172 -272 316 -505 65 -104
124 -198 133 -207 12 -15 32 -18 109 -18 70 0 95 3 99 14 3 7 -21 56 -52 107
-195 319 -284 466 -337 554 -33 55 -76 125 -94 155 -314 504 -483 781 -832
1367 -89 150 -170 277 -181 283 -28 15 -55 12 -72 -7z"/>
<path d="M930 4963 c0 -4 23 -31 51 -59 l51 -52 -12 -53 c-46 -212 -64 -296
-80 -384 -11 -55 -30 -152 -44 -215 -13 -63 -43 -201 -65 -306 -22 -105 -47
-211 -55 -235 -9 -24 -12 -46 -8 -49 4 -3 151 -3 327 1 370 8 424 17 585 96
169 84 281 221 353 433 62 183 79 403 40 512 -41 112 -111 185 -232 243 -72
35 -157 53 -271 59 -181 10 -640 17 -640 9z m701 -241 c86 -34 124 -82 139
-178 18 -112 -31 -353 -97 -476 -90 -165 -203 -228 -417 -229 -59 -1 -110 2
-113 5 -8 7 18 157 62 360 17 83 47 234 65 336 18 102 38 191 44 199 17 22
246 10 317 -17z"/>
<path d="M6965 4923 c-122 -4 -409 -24 -415 -29 -2 -3 17 -25 43 -48 39 -36
47 -50 47 -79 0 -47 -81 -530 -135 -809 -45 -230 -53 -256 -102 -317 l-28 -34
315 6 c357 6 442 18 588 81 102 44 150 77 223 153 141 146 205 302 216 524 7
145 -13 225 -80 316 -133 180 -320 246 -672 236z m276 -250 c110 -51 150 -125
150 -279 0 -318 -159 -524 -426 -554 -49 -5 -107 -10 -127 -10 -37 0 -38 1
-38 36 0 19 20 158 44 307 25 150 53 326 62 392 9 66 22 126 28 134 8 10 36
12 126 9 103 -3 122 -7 181 -35z"/>
<path d="M2265 4896 c-6 -21 -28 -161 -29 -186 l-1 -25 121 -3 c89 -2 124 1
131 10 10 12 56 199 51 203 -2 2 -63 5 -136 7 -92 3 -135 1 -137 -6z"/>
<path d="M6031 4879 c-75 -10 -189 -43 -243 -70 -21 -11 -48 -36 -61 -57 -40
-64 -90 -162 -85 -167 2 -3 38 7 79 21 236 81 404 84 453 9 20 -30 21 -105 2
-148 -34 -80 -99 -108 -264 -115 l-122 -5 -6 -26 c-2 -14 -11 -52 -19 -83 -8
-32 -15 -62 -15 -67 0 -5 60 -10 133 -13 111 -3 139 -7 178 -26 59 -29 73 -55
67 -127 -6 -71 -29 -102 -98 -137 -100 -49 -227 -47 -413 7 -43 12 -79 19 -82
16 -10 -17 -26 -184 -18 -192 5 -5 45 -18 88 -29 338 -86 652 -8 772 192 77
128 79 262 3 338 -21 21 -55 43 -76 50 -59 19 -60 26 -10 49 26 11 71 44 100
74 44 44 58 67 75 122 23 74 26 140 10 199 -13 48 -78 119 -133 146 -72 34
-214 52 -315 39z"/>
<path d="M3480 4570 c-25 -5 -82 -23 -128 -41 l-82 -31 -30 25 c-69 59 -183
62 -310 8 -41 -17 -78 -31 -82 -31 -4 0 -5 14 -1 30 l6 31 -124 -3 -123 -3
-12 -85 c-21 -149 -93 -566 -114 -660 -31 -141 -40 -130 98 -130 64 0 123 4
130 9 8 5 27 85 47 202 18 107 44 251 56 321 l23 128 52 15 c72 21 110 19 135
-6 28 -28 24 -75 -30 -374 -24 -126 -43 -241 -44 -255 l-2 -25 125 0 125 0 22
125 c13 69 37 208 54 310 17 102 34 191 38 199 19 39 165 55 194 23 26 -29 27
-23 -53 -470 -17 -95 -28 -177 -25 -183 7 -11 242 -12 249 -1 4 7 20 94 87
465 27 152 24 276 -9 329 -41 66 -162 100 -272 78z"/>
<path d="M4230 4565 c-248 -56 -383 -259 -385 -575 0 -88 3 -101 33 -162 58
-118 161 -168 346 -168 99 0 280 30 299 49 9 9 47 153 47 178 0 7 -17 5 -51
-8 -28 -11 -92 -27 -144 -35 -114 -19 -189 -8 -238 36 -28 24 -31 35 -35 95
-3 50 -1 70 9 76 8 5 132 9 275 9 l262 0 11 63 c6 35 11 102 11 149 0 76 -3
92 -32 149 -36 69 -95 119 -166 139 -65 18 -173 21 -242 5z m167 -189 c26 -22
28 -30 28 -98 l0 -73 -140 0 -140 0 -3 25 c-4 37 56 129 98 152 51 27 122 24
157 -6z"/>
<path d="M2206 4548 c-2 -7 -9 -56 -15 -108 -11 -89 -48 -297 -107 -604 -14
-71 -26 -134 -27 -140 -1 -7 38 -12 126 -13 111 -1 128 1 136 16 9 16 29 122
96 516 19 110 41 230 48 267 8 37 12 70 9 73 -3 3 -63 5 -134 5 -94 0 -130 -3
-132 -12z"/>
<path d="M4700 4545 c0 -3 52 -103 115 -221 l115 -217 -39 -51 c-22 -28 -99
-121 -171 -206 l-131 -155 53 -7 c59 -9 213 -7 226 1 11 9 127 164 148 200 24
41 40 39 55 -6 7 -21 29 -75 50 -120 l38 -83 146 0 c97 0 145 4 145 11 0 13
-119 258 -166 341 -19 33 -34 65 -34 72 0 7 43 64 96 127 135 160 254 307 254
313 0 3 -64 6 -142 6 l-143 0 -20 -29 c-11 -16 -51 -75 -89 -130 -38 -56 -73
-101 -76 -101 -4 0 -15 21 -25 48 -10 26 -35 84 -56 130 l-38 82 -155 0 c-86
0 -156 -2 -156 -5z"/>
<path d="M7820 4196 c0 -4 7 -39 16 -78 44 -191 -18 -430 -171 -668 -44 -70
-221 -279 -256 -303 -11 -8 -48 -41 -81 -73 -78 -76 -210 -185 -271 -225 -27
-18 -44 -35 -38 -38 12 -8 2 -25 -21 -34 -12 -4 -15 -2 -11 9 8 20 -14 17 -29
-5 -7 -10 -16 -18 -20 -17 -3 0 -10 -2 -14 -6 -4 -5 -2 -8 5 -8 7 0 9 -5 6
-10 -5 -8 -11 -7 -21 1 -10 8 -18 8 -26 1 -21 -17 -214 -120 -368 -197 -452
-226 -959 -413 -1465 -540 -263 -66 -320 -78 -580 -114 -323 -46 -448 -55
-740 -55 -208 0 -296 4 -383 17 -252 39 -352 98 -352 209 -1 40 -2 42 -15 24
-20 -26 -19 -106 1 -134 69 -99 362 -184 684 -200 160 -8 520 2 634 17 185 26
315 43 386 52 41 5 82 12 90 15 8 4 62 15 120 26 58 11 123 23 145 28 59 12
135 26 265 50 229 43 651 173 935 287 294 119 685 323 685 359 0 7 8 14 18 14
10 0 25 12 32 26 10 17 20 24 33 20 19 -5 94 31 132 63 11 9 32 23 47 31 42
20 203 144 262 200 30 28 69 66 89 83 48 44 158 178 213 259 185 276 232 592
123 829 -28 60 -59 105 -59 85z"/>
<path d="M1785 3379 c-99 -4 -227 -12 -285 -18 -143 -16 -343 -50 -353 -60
-19 -19 111 -325 225 -529 109 -194 161 -269 311 -446 114 -135 311 -315 472
-432 348 -255 819 -455 1290 -549 168 -34 249 -44 259 -34 3 3 -29 14 -72 24
-473 111 -1006 376 -1382 689 -277 230 -512 507 -693 817 -81 138 -152 288
-141 299 5 5 101 23 214 41 228 35 381 58 393 59 14 0 7 19 -10 23 -17 4 -17
5 0 6 19 1 24 21 5 21 -7 1 -4 6 7 13 23 14 30 51 12 65 -21 16 -66 18 -252
11z"/>
<path d="M3436 3132 l-430 -2 29 -30 c41 -43 41 -45 -82 -425 -70 -215 -139
-386 -173 -427 -17 -21 -58 -54 -92 -75 -34 -21 -55 -39 -47 -41 28 -5 248 57
307 87 122 62 153 108 222 336 23 77 46 146 52 153 7 8 49 12 142 12 l131 0
47 33 c26 19 74 47 107 62 33 16 58 32 55 37 -3 4 -99 8 -214 8 -115 0 -211 4
-214 9 -8 12 31 123 47 133 6 4 128 8 269 8 l257 0 20 55 c12 31 21 57 21 59
0 10 -55 11 -454 8z"/>
<path d="M3993 3132 c-15 -2 -27 -18 -43 -58 -13 -30 -19 -58 -15 -62 3 -4 71
-9 150 -12 126 -4 147 -8 172 -26 73 -55 14 -184 -99 -215 -24 -6 -97 -12
-162 -13 l-119 -1 -82 -215 c-93 -248 -102 -267 -158 -327 -39 -42 -132 -112
-167 -126 -11 -4 -10 -6 5 -6 31 -1 134 51 192 98 60 47 90 101 168 299 27 67
52 122 55 122 4 0 59 -79 123 -175 65 -96 134 -194 155 -217 46 -52 122 -88
182 -87 57 0 213 33 217 45 2 5 -12 19 -31 32 -73 50 -386 400 -386 432 0 4
28 13 63 20 85 16 197 70 244 117 58 58 78 106 78 185 0 83 -18 111 -99 153
-56 28 -63 29 -239 35 -100 3 -192 4 -204 2z"/>
<path d="M4598 3133 l-57 -4 31 -28 c51 -45 44 -87 -78 -446 -26 -77 -49 -142
-50 -144 -4 -4 -64 12 -100 26 -8 3 -14 1 -14 -3 0 -10 98 -134 142 -181 l31
-32 69 47 c57 39 70 53 79 87 37 137 98 330 106 332 5 2 33 -49 62 -112 30
-63 59 -115 65 -115 6 0 76 59 156 130 80 71 150 130 157 130 9 0 8 -12 -3
-47 -8 -27 -33 -113 -55 -193 -22 -80 -47 -171 -56 -203 -9 -31 -14 -60 -10
-63 3 -3 74 11 157 32 123 31 149 41 144 54 -19 42 -11 85 59 331 41 145 80
277 87 294 6 16 30 46 52 67 l41 38 -137 0 c-188 0 -187 0 -403 -201 -59 -55
-110 -99 -114 -99 -4 0 -11 10 -15 23 -19 61 -116 248 -136 261 -26 15 -123
24 -210 19z"/>
</g>
</svg>
